<svg width="30" height="30" viewBox="0 0 30 30" fill="none" xmlns="http://www.w3.org/2000/svg">
<path d="M27.5 15C27.5 21.9036 21.9036 27.5 15 27.5C8.09644 27.5 2.5 21.9036 2.5 15C2.5 8.09644 8.09644 2.5 15 2.5C21.9036 2.5 27.5 8.09644 27.5 15Z" fill="#D38CFF"/>
<path fill-rule="evenodd" clip-rule="evenodd" d="M20.8839 10.9911C21.372 11.4793 21.372 12.2707 20.8839 12.7589L14.6339 19.0089C14.1457 19.497 13.3543 19.497 12.8661 19.0089L9.74112 15.8839C9.25296 15.3957 9.25296 14.6043 9.74112 14.1161C10.2293 13.628 11.0207 13.628 11.5089 14.1161L13.75 16.3572L19.1161 10.9911C19.6043 10.503 20.3957 10.503 20.8839 10.9911Z" fill="white"/>
</svg>
