<svg width="66" height="66" viewBox="0 0 66 66" fill="none" xmlns="http://www.w3.org/2000/svg"><rect width="66" height="66" rx="10" fill="#D38CFF"/><path d="M40.5792 37.5516H38.9846L38.4195 37.0066C40.3975 34.7056 41.5884 31.7183 41.5884 28.4687C41.5884 21.2225 35.7148 15.3489 28.4686 15.3489C21.2224 15.3489 15.3488 21.2225 15.3488 28.4687C15.3488 35.7148 21.2224 41.5885 28.4686 41.5885C31.7183 41.5885 34.7056 40.3976 37.0066 38.4195L37.5515 38.9847V40.5792L47.6437 50.6512L50.6511 47.6437L40.5792 37.5516ZM28.4686 37.5516C23.4427 37.5516 19.3857 33.4946 19.3857 28.4687C19.3857 23.4428 23.4427 19.3857 28.4686 19.3857C33.4945 19.3857 37.5515 23.4428 37.5515 28.4687C37.5515 33.4946 33.4945 37.5516 28.4686 37.5516Z" fill="white"/></svg>
