<svg class="svg-icon" style="width: 1em; height: 1em;vertical-align: middle;fill: currentColor;overflow: hidden;" viewBox="0 0 1024 1024" version="1.1" xmlns="http://www.w3.org/2000/svg"><path d="M512 192C298.666667 192 116.48 324.693333 42.666667 512c73.813333 187.306667 256 320 469.333333 320 213.546667 0 395.52-132.693333 469.333333-320-73.813333-187.306667-255.786667-320-469.333333-320z m0 533.333333c-117.76 0-213.333333-95.573333-213.333333-213.333333s95.573333-213.333333 213.333333-213.333333 213.333333 95.573333 213.333333 213.333333-95.573333 213.333333-213.333333 213.333333z m0-341.333333c-70.613333 0-128 57.386667-128 128s57.386667 128 128 128 128-57.386667 128-128-57.386667-128-128-128z"  /></svg>