<svg width="34" height="34" viewBox="0 0 34 34" fill="none" xmlns="http://www.w3.org/2000/svg">
<path d="M31.1666 17.0002C31.1666 24.8242 24.824 31.1668 16.9999 31.1668C9.17588 31.1668 2.83325 24.8242 2.83325 17.0002C2.83325 9.17613 9.17588 2.8335 16.9999 2.8335C24.824 2.8335 31.1666 9.17613 31.1666 17.0002Z" fill="#D38CFF"/>
<path d="M18.0013 16.9996L22.1757 12.8252C22.2453 12.7603 22.3011 12.6821 22.3398 12.5953C22.3785 12.5084 22.3994 12.4146 22.401 12.3195C22.4027 12.2244 22.3852 12.1299 22.3496 12.0417C22.314 11.9535 22.2609 11.8734 22.1937 11.8061C22.1264 11.7388 22.0463 11.6858 21.9581 11.6502C21.8699 11.6146 21.7754 11.5971 21.6803 11.5987C21.5852 11.6004 21.4914 11.6212 21.4045 11.66C21.3176 11.6987 21.2394 11.7545 21.1746 11.8241L17.0001 15.9985L12.8257 11.8241C12.6914 11.699 12.5138 11.6308 12.3303 11.6341C12.1468 11.6373 11.9717 11.7117 11.8419 11.8414C11.7122 11.9712 11.6378 12.1463 11.6346 12.3298C11.6313 12.5133 11.6995 12.6909 11.8246 12.8252L15.999 16.9996L11.8246 21.1741C11.6919 21.3069 11.6174 21.4869 11.6174 21.6746C11.6174 21.8623 11.6919 22.0424 11.8246 22.1752C11.9574 22.3078 12.1374 22.3823 12.3251 22.3823C12.5129 22.3823 12.6929 22.3078 12.8257 22.1752L17.0001 18.0007L21.1746 22.1752C21.3074 22.3078 21.4874 22.3823 21.6751 22.3823C21.8629 22.3823 22.0429 22.3078 22.1757 22.1752C22.3083 22.0424 22.3829 21.8623 22.3829 21.6746C22.3829 21.4869 22.3083 21.3069 22.1757 21.1741L18.0013 16.9996Z" fill="white"/>
</svg>
